<?xml version="1.0" standalone="no"?>
<!DOCTYPE svg PUBLIC "-//W3C//DTD SVG 20010904//EN"
 "http://www.w3.org/TR/2001/REC-SVG-20010904/DTD/svg10.dtd">
<svg version="1.0" xmlns="http://www.w3.org/2000/svg"
 width="538.000000pt" height="538.000000pt" viewBox="0 0 538.000000 538.000000"
 preserveAspectRatio="xMidYMid meet">
<metadata>
Created by potrace 1.16, written by Peter Selinger 2001-2019
</metadata>
<g transform="translate(0.000000,538.000000) scale(0.100000,-0.100000)"
fill="#000000" stroke="none">
<path d="M686 3799 l-26 -20 0 -734 c0 -690 1 -737 19 -794 26 -83 62 -141
120 -194 64 -57 107 -77 165 -77 l46 0 0 -120 c0 -115 1 -122 25 -145 23 -24
28 -25 179 -25 95 0 165 4 180 11 35 16 46 57 46 176 l0 104 103 -3 102 -3 3
-122 c3 -119 3 -123 29 -143 26 -20 37 -21 189 -18 212 4 204 -3 204 165 l0
123 355 0 355 0 0 -124 c0 -123 0 -125 26 -145 24 -19 40 -21 185 -21 152 0
159 1 186 24 27 24 28 27 31 145 l4 122 101 -3 102 -3 3 -122 c3 -119 3 -123
29 -143 26 -20 37 -21 189 -18 212 4 204 -3 204 165 l0 123 105 0 105 0 0
-109 c0 -60 4 -121 9 -134 16 -41 54 -49 226 -45 201 4 195 -1 195 169 l0 119
33 0 c80 0 195 49 264 113 84 78 123 174 123 307 0 143 -46 257 -141 350 -69
67 -128 100 -267 150 -59 21 -244 90 -412 155 -901 346 -2004 765 -2015 765
-8 0 -33 -15 -57 -33 -247 -188 -550 -304 -738 -282 -198 23 -335 101 -481
273 -40 47 -64 52 -103 21z m1794 -291 c0 -6 -807 -644 -847 -669 -17 -10 -36
-2 -139 55 -159 90 -423 220 -564 280 -63 27 -118 52 -123 56 -4 3 -6 77 -5
164 l3 158 45 -34 c120 -91 266 -145 414 -155 215 -13 480 74 726 239 l94 64
198 -76 c109 -41 198 -78 198 -82z m273 -98 c48 -18 87 -36 87 -39 0 -4 -209
-174 -464 -378 l-464 -372 -82 61 c-44 34 -77 64 -73 69 43 42 890 698 898
696 6 -2 49 -19 98 -37z m655 -250 c216 -82 398 -150 404 -150 31 0 -12 -14
-123 -40 -545 -126 -918 -406 -1025 -770 l-22 -75 -182 0 -182 0 -17 55 c-32
100 -83 180 -182 285 l-58 60 487 391 c268 216 492 392 498 393 5 1 187 -66
402 -149z m-2478 -140 c47 -21 158 -74 246 -118 540 -270 882 -544 948 -759
l7 -23 -594 0 -594 0 -45 40 c-26 23 -55 61 -69 92 -24 52 -24 57 -27 436 l-3
384 23 -8 c13 -4 61 -24 108 -44z m3385 -204 c248 -94 292 -115 342 -164 25
-23 56 -68 71 -100 23 -49 27 -70 27 -147 0 -77 -4 -98 -26 -140 -14 -28 -44
-64 -67 -82 -85 -65 -56 -63 -1009 -63 -475 0 -863 2 -863 5 0 2 10 30 21 62
128 339 503 574 1084 679 183 33 208 30 420 -50z"/>
</g>
</svg>
